<svg width="186" height="58" viewBox="0 0 186 58" fill="none" xmlns="http://www.w3.org/2000/svg">
<path d="M73.3351 41.3537C69.935 41.3537 67.116 40.6338 64.8783 39.194C62.7018 37.8318 61.0486 35.7751 60.1863 33.3566L67.2204 29.263C68.4172 32.1163 70.5307 33.5416 73.561 33.5389C76.0735 33.5389 77.3297 32.8256 77.3297 31.399C77.3297 30.4558 76.6085 29.6949 75.158 29.1203C74.5478 28.8561 73.203 28.4295 71.1238 27.8403C68.1728 26.9817 65.8453 25.7783 64.1412 24.2301C62.4372 22.682 61.5786 20.5288 61.5654 17.7706C61.5654 14.7985 62.6314 12.393 64.7634 10.5542C66.8954 8.71546 69.5532 7.79078 72.7367 7.78022C75.2558 7.73198 77.7388 8.38361 79.9095 9.66258C82.0242 10.957 83.693 12.8664 84.6927 15.1353L77.7934 19.1973C76.7789 16.8037 75.1078 15.6148 72.7803 15.6307C71.9936 15.5694 71.2091 15.7746 70.5532 16.2132C70.3156 16.3889 70.1231 16.6184 69.9915 16.8829C69.8599 17.1475 69.793 17.4395 69.7963 17.735C69.8094 18.1078 69.9202 18.4706 70.1178 18.7871C70.3153 19.1036 70.5925 19.3625 70.9217 19.5381C71.672 20.0348 73.1317 20.6054 75.3007 21.25L79.0496 22.6014C80.1671 23.0235 81.2312 23.5755 82.2199 24.246C83.319 24.9515 84.1968 25.9528 84.7522 27.1349C85.322 28.4381 85.5993 29.8503 85.5646 31.2722C85.5646 34.4266 84.4457 36.8942 82.208 38.6748C79.9703 40.4555 77.0127 41.3484 73.3351 41.3537ZM94.2314 14.4854C93.6148 15.0994 92.8305 15.5174 91.977 15.687C91.1235 15.8566 90.2389 15.7703 89.4344 15.4387C88.6299 15.1072 87.9413 14.5452 87.4551 13.8236C86.969 13.1019 86.7069 12.2526 86.7019 11.3825C86.695 10.8029 86.8092 10.2282 87.0371 9.69529C87.265 9.16235 87.6017 8.68285 88.0255 8.28746C88.4327 7.87935 88.9163 7.55556 89.4487 7.33464C89.9812 7.11372 90.552 7 91.1284 7C91.7049 7 92.2757 7.11372 92.8082 7.33464C93.3406 7.55556 93.8243 7.87935 94.2314 8.28746C94.6503 8.68333 94.9827 9.16162 95.208 9.69222C95.433 10.2228 95.546 10.7943 95.539 11.3706C95.546 11.9516 95.433 12.5277 95.208 13.0634C94.9829 13.5992 94.6506 14.0831 94.2314 14.4854ZM87.3043 40.6642V21.2144L94.9368 17.6795V40.6642H87.3043ZM114.612 17.6795H122.142V39.7448C122.174 41.4349 121.82 43.1101 121.108 44.6429C120.482 45.9902 119.528 47.1592 118.334 48.0431C117.171 48.8851 115.874 49.523 114.498 49.9294C110.772 50.9827 106.796 50.7024 103.255 49.1368C101.344 48.2591 99.765 46.7925 98.749 44.952L105.09 41.2745C105.591 42.1098 106.308 42.7941 107.166 43.2552C108.024 43.7163 108.991 43.937 109.964 43.8939C111.172 43.9473 112.36 43.5742 113.321 42.8398C114.177 42.1344 114.609 41.108 114.609 39.7567V37.5494C113.05 39.441 110.909 40.3868 108.185 40.3868C106.709 40.4238 105.243 40.1383 103.889 39.5504C102.536 38.9624 101.326 38.0861 100.346 36.9827C98.282 34.7287 97.17 31.7636 97.243 28.7082C97.17 25.6528 98.282 22.6876 100.346 20.4337C101.327 19.3309 102.536 18.455 103.89 17.8671C105.244 17.2792 106.709 16.9934 108.185 17.0296C110.911 17.0296 113.056 17.9807 114.62 19.8828L114.612 17.6795ZM106.223 32.1361C107.186 33.0105 108.44 33.4949 109.74 33.4949C111.041 33.4949 112.294 33.0105 113.257 32.1361C114.128 31.2088 114.613 29.9844 114.613 28.7121C114.613 27.4399 114.128 26.2155 113.257 25.2882C112.293 24.4163 111.04 23.9335 109.74 23.9335C108.44 23.9335 107.187 24.4163 106.223 25.2882C105.35 26.2146 104.864 27.4394 104.864 28.7121C104.864 29.9849 105.35 31.2097 106.223 32.1361ZM139.436 17.0335C140.575 16.996 141.709 17.2046 142.76 17.645C143.811 18.0854 144.755 18.7473 145.527 19.5856C147.112 21.2897 147.905 23.7348 147.905 26.9209V40.6642H140.272V27.8839C140.272 26.6898 139.958 25.7862 139.329 25.1733C138.996 24.8622 138.605 24.6206 138.177 24.4628C137.75 24.3049 137.295 24.2339 136.84 24.2539C136.328 24.2232 135.814 24.3037 135.335 24.4897C134.857 24.6757 134.424 24.963 134.066 25.3318C133.408 26.0531 133.08 27.0874 133.08 28.4347V40.6642H125.423V17.6795H133.056V19.978C134.435 18.015 136.564 17.0335 139.444 17.0335H139.436ZM167.065 17.6795H174.698V40.6642H167.073V38.552C165.512 40.4013 163.336 41.326 160.546 41.326C159.086 41.3505 157.639 41.052 156.308 40.4519C154.977 39.8518 153.795 38.9648 152.846 37.8545C150.778 35.5402 149.743 32.6512 149.743 29.1877C149.743 25.7241 150.778 22.8352 152.846 20.5209C153.795 19.4106 154.977 18.5236 156.308 17.9235C157.639 17.3233 159.086 17.0249 160.546 17.0494C163.336 17.0494 165.512 17.9741 167.073 19.8234L167.065 17.6795ZM158.743 32.8058C159.69 33.6923 160.939 34.1855 162.236 34.1855C163.534 34.1855 164.783 33.6923 165.73 32.8058C166.181 32.3185 166.532 31.7463 166.76 31.1225C166.989 30.4986 167.091 29.8356 167.061 29.1718C167.091 28.5087 166.989 27.8463 166.76 27.2231C166.532 26.5999 166.181 26.0284 165.73 25.5418C164.783 24.6553 163.534 24.1621 162.236 24.1621C160.939 24.1621 159.69 24.6553 158.743 25.5418C158.29 26.0276 157.939 26.5988 157.709 27.2222C157.48 27.8455 157.377 28.5083 157.408 29.1718C157.379 29.8367 157.484 30.5006 157.715 31.1246C157.946 31.7486 158.3 32.3202 158.755 32.8058H158.743ZM177.959 40.6642V10.6375L185.584 7.0986V40.6642H177.959Z" fill="#6366F1"/>
<path d="M43.1556 38.8397C48.5892 33.4061 48.5892 24.5966 43.1556 19.163C38.6184 14.6258 31.7273 13.8773 26.4134 16.9174L16.7505 7.25452L4.84033 19.1647C-0.592289 24.5973 -0.592279 33.4053 4.84033 38.8379C9.3772 43.3748 16.268 44.1229 21.5812 41.0822L31.2471 50.7481L43.1556 38.8397Z" fill="url(#paint0_linear_1:13)"/>
<path d="M26.4208 16.9098L4.6651 38.6657C-0.672878 33.3277 -0.672868 24.6731 4.6651 19.3352L16.7556 7.24466L16.7579 7.24692L23.9997 0.00512695L26.4137 2.41911C30.4147 6.4202 30.4171 12.9058 26.4208 16.9098Z" fill="url(#paint1_linear_1:13)"/>
<path d="M31.2438 50.7552L24.0029 57.9961L21.5866 55.5798C17.5831 51.5763 17.5831 45.0854 21.5866 41.0819L21.5868 41.0821L43.3348 19.3341C48.6728 24.6721 48.6727 33.3266 43.3348 38.6646L31.244 50.7554L31.2438 50.7552Z" fill="url(#paint2_linear_1:13)"/>
<defs>
<linearGradient id="paint0_linear_1:13" x1="34.7407" y1="42.0089" x2="14.5979" y2="21.8264" gradientUnits="userSpaceOnUse">
<stop stop-color="#302988"/>
<stop offset="0.56033" stop-color="#4338CA"/>
<stop offset="1" stop-color="#302988"/>
</linearGradient>
<linearGradient id="paint1_linear_1:13" x1="38.8018" y1="-20.4069" x2="-2.7038" y2="40.8105" gradientUnits="userSpaceOnUse">
<stop stop-color="#D0BAFF"/>
<stop offset="0.46875" stop-color="#6366F1"/>
<stop offset="1" stop-color="#4345A6"/>
</linearGradient>
<linearGradient id="paint2_linear_1:13" x1="10.2084" y1="83.8543" x2="47.3384" y2="10.7985" gradientUnits="userSpaceOnUse">
<stop stop-color="#D0BAFF"/>
<stop offset="0.46875" stop-color="#6366F1"/>
<stop offset="1" stop-color="#4345A6"/>
</linearGradient>
</defs>
</svg>
